<?xml version="1.0" encoding="iso-8859-1"?>
<!-- Generator: Adobe Illustrator 23.0.6, SVG Export Plug-In . SVG Version: 6.00 Build 0)  -->
<svg version="1.1" id="Capa_1" xmlns="http://www.w3.org/2000/svg" xmlns:xlink="http://www.w3.org/1999/xlink" x="0px" y="0px" width="100%" height="100%"
	 viewBox="0 0 512 512" style="enable-background:new 0 0 512 512;" xml:space="preserve">
<g>
	<path style="fill:#B1E4F9;" d="M512,256c0,56.45-18.28,108.64-49.24,150.97c-18.84,25.77-42.39,47.88-69.38,65.07
		c-16.76,10.68-34.84,19.47-53.95,26.05C313.28,507.11,285.21,512,256,512c-54.78,0-105.55-17.21-147.18-46.52
		c-8.96-6.3-17.5-13.17-25.56-20.54c-2.6-2.38-5.16-4.82-7.66-7.3l-0.01-0.01C28.91,391.25,0,327,0,256c0-19.4,2.16-38.3,6.26-56.47
		c1.38-6.13,2.98-12.17,4.79-18.12c9.66-31.78,25.33-60.93,45.7-86.15C103.67,37.16,175.5,0,256,0
		c76.23,0,144.67,33.32,191.57,86.19c19.54,22.02,35.33,47.44,46.39,75.25c5.7,14.31,10.14,29.26,13.18,44.71
		c1.26,6.34,2.28,12.77,3.05,19.28C511.39,235.45,512,245.66,512,256z"/>
	<g>
		<rect x="241.056" y="0" style="fill:#BD5423;" width="29.887" height="399.717"/>
		<path style="fill:#D9723E;" d="M510.19,225.43c-0.61,1.19-1.37,2.32-2.3,3.38c-11.09,12.67-27.32,20.79-40.03,25.61
			c-9.3,3.52-19.53-1.95-21.94-11.6c-1.39-5.52-3.3-11.12-5.58-16.45c-3.48,1.27-7.32,1.79-11.33,1.37
			c-10.95-1.16-20.01-9.54-22.02-20.37c-0.7-3.73-0.53-7.33,0.29-10.68c-1.76,1.61-3.32,4.11-4.61,7.67
			c-11.78,32.4,37.88,73.63,37.88,140.82c0,48.49-17.77,92.84-47.17,126.86c-16.76,10.68-34.84,19.47-53.95,26.05
			C313.28,507.11,285.21,512,256,512c-70.37,0-134.12-28.41-180.4-74.36l-0.01-0.01c-12.97-23.93-21.07-50.89-22.95-79.54
			c-0.29-4.27-0.43-8.57-0.43-12.91c0-67.19,49.67-108.42,37.89-140.82c-9.89-27.18-50.22-14.72-37.89,13.25
			c12.33,27.98,9.38,48.6-17.86,58.17c0,0,9.55-30.25-8.1-47.9c-6.67-6.67-14.6-16.28-19.99-28.35c-6.21-13.93-9.04-31.13-2.62-50.9
			c2.74-8.46,7.18-17.39,13.77-26.73c9.93-14.07,23.95-22.56,39.34-26.64c39.38-10.47,87.73,7.87,99.61,35.3
			c7,16.16,9.83,31.93,9.83,47.1c0,63.71-49.83,116.91-49.83,144.26c42.56,11.64,86.29,17.47,130.02,17.47
			c19.77,0,39.54-1.19,59.19-3.58c23.83-2.88,47.51-7.51,70.83-13.89c0-33.87-80.58-135.23-40-191.36
			c33.63-46.5,95.72-30.04,95.72-30.04l15.45-14.33l5.91-5.48c4.62-4.28,12.15-1.56,12.96,4.69l3.96,30.61
			c17.72,8.12,22.85,27.82,23.56,45.43c0.72,17.53-2.94,33.01-2.94,33.01l13.96,9.88c0.79,0.55,1.51,1.16,2.16,1.82
			C512.25,211.24,513.44,219.08,510.19,225.43z"/>
		<path style="fill:#BD5423;" d="M108.82,465.48c-8.96-6.3-17.5-13.17-25.56-20.54c-2.6-2.38-5.16-4.82-7.66-7.3l-0.01-0.01
			c-14.91-27.49-23.38-58.99-23.38-92.45c0-67.19,49.67-108.42,37.89-140.82c-9.89-27.18-50.22-14.72-37.89,13.25
			c12.33,27.98,9.38,48.6-17.86,58.17c0,0,9.55-30.25-8.1-47.9c-6.67-6.67-14.6-16.28-19.99-28.35c-6.21-13.93-9.04-31.13-2.62-50.9
			c-0.26,12.27,1.62,24.56,7.41,32.78c4.27,6.05,10.66,9.9,19.9,9.9c41.05,0,36.17-44.41,91.88-37.17
			c55.71,7.23,0,96.37-30.3,154.85C71.03,350.49,78.07,414.87,108.82,465.48z"/>
		<g>
			<circle style="fill:#F6F1F1;" cx="177.372" cy="347.194" r="69.208"/>
			<circle style="fill:#BD5423;" cx="177.372" cy="347.194" r="49.128"/>
			<circle style="fill:#F6F1F1;" cx="177.372" cy="347.194" r="19.24"/>
		</g>
		<path style="fill:#F6F1F1;" d="M415.56,66.07c-16.91,61.79-33.81,123.58-50.72,185.38c-2.86,10.48-13.5,16.8-24.09,14.37
			c-9.75-2.24-19.56-4.16-29.4-5.76c-16.45-2.69-33-4.49-49.59-5.41c-17.24-0.95-34.53-0.95-51.76,0
			c-16.59,0.92-33.14,2.72-49.59,5.41c-9.84,1.6-19.65,3.52-29.4,5.76c-10.6,2.43-21.23-3.89-24.1-14.37
			C90.01,189.65,73.1,127.86,56.2,66.07C173.82,33.89,297.93,33.89,415.56,66.07z"/>
		<g>
			<path style="fill:#E84D59;" d="M210,254.65c-16.59,0.92-33.14,2.72-49.59,5.41c-9.05-69.2-18.09-138.37-27.12-207.57
				c23.28-3.55,46.69-5.88,70.15-6.99C205.63,115.21,207.82,184.93,210,254.65z"/>
			<path style="fill:#E84D59;" d="M338.47,52.49c-9.04,69.2-18.07,138.37-27.12,207.57c-16.45-2.69-33-4.49-49.59-5.41
				c2.18-69.72,4.37-139.44,6.56-209.15C291.78,46.61,315.19,48.94,338.47,52.49z"/>
		</g>
		<path style="fill:#BD5423;" d="M415.561,76.076c-0.874,0-1.761-0.115-2.645-0.357c-115.821-31.685-238.26-31.684-354.079,0
			c-5.326,1.46-10.827-1.68-12.284-7.007c-1.457-5.327,1.68-10.827,7.007-12.284c119.274-32.63,245.361-32.629,364.634,0
			c5.327,1.457,8.464,6.957,7.007,12.284C423.985,73.156,419.956,76.076,415.561,76.076z"/>
		<path style="fill:#D9723E;" d="M442.38,91.004l-10.264,9.518c0,0-62.089-16.464-95.713,30.042
			c-31.804,43.989,10.811,115.761,30.73,161.052l27.526-65.229l9.122-41.701l47.566-47.566L442.38,91.004z"/>
		<path style="fill:#BD5423;" d="M339.43,498.09C313.28,507.11,285.21,512,256,512c-70.38,0-134.13-28.41-180.41-74.37
			c-12.97-23.93-21.07-50.89-22.95-79.54l27.84-3.03C76.14,393.11,141.28,523.09,339.43,498.09z"/>
		<path style="fill:#BD5423;" d="M388.16,282.76c13.18,29.32,14.2,64.5-15.48,103.84l-67.11-50.79
			c23.83-2.88,47.51-7.51,70.83-13.89c0-33.87-80.58-135.23-40-191.36c33.63-46.5,95.72-30.04,95.72-30.04
			C287.9,109.85,374.99,253.44,388.16,282.76z"/>
		<g>
			<circle style="fill:#F6F1F1;" cx="315.787" cy="347.194" r="69.208"/>
			<circle style="fill:#BD5423;" cx="315.787" cy="347.194" r="49.128"/>
			<circle style="fill:#F6F1F1;" cx="315.787" cy="347.194" r="19.24"/>
		</g>
		<path style="fill:#BD5423;" d="M439.218,149.25c-10.055,10.055-10.055,26.358,0,36.413c10.055,10.055,26.358,10.055,36.413,0"/>
		<circle style="fill:#D9723E;" cx="486.845" cy="229.112" r="19.222"/>
		<circle style="fill:#BD5423;" cx="486.845" cy="229.112" r="8.796"/>
	</g>
	<path style="fill:#80B4FB;" d="M462.76,406.97c-18.84,25.77-42.39,47.88-69.38,65.07c-11.85,7.55-24.36,14.16-37.43,19.7
		c-5.42,2.31-10.92,4.42-16.52,6.35C313.28,507.11,285.21,512,256,512c-47.24,0-91.5-12.8-129.49-35.12
		c-15.54-9.13-30.03-19.85-43.25-31.94c1.72,0.22,3.54,0.33,5.45,0.33c36.21,0,36.21-40,72.42-40c36.21,0,36.21,40,72.41,40
		c36.21,0,36.21-40,72.42-40s36.21,40,72.42,40c36.21,0,36.21-40,72.42-40C455.3,405.27,459.24,405.89,462.76,406.97z"/>
	<path style="fill:#5EA5EC;" d="M355.95,491.74c-5.42,2.31-10.92,4.42-16.52,6.35C313.28,507.11,285.21,512,256,512
		c-47.24,0-91.5-12.8-129.49-35.12c8.55-9.39,17.57-18.25,34.62-18.25c36.21,0,36.21,40,72.41,40c36.21,0,36.21-40,72.42-40
		C332.62,458.63,339.65,480.31,355.95,491.74z"/>
</g>
<g>
</g>
<g>
</g>
<g>
</g>
<g>
</g>
<g>
</g>
<g>
</g>
<g>
</g>
<g>
</g>
<g>
</g>
<g>
</g>
<g>
</g>
<g>
</g>
<g>
</g>
<g>
</g>
<g>
</g>
</svg>
