
<svg xmlns="http://www.w3.org/2000/svg" viewBox="0 0 481 128">
  <g id="Group_13" data-name="Group 13" transform="translate(-93 -109)">
    <path id="Icon_awesome-spinner" data-name="Icon awesome-spinner" d="M86.264,12c0,6.627-6.1,12-13.621,12S59.023,18.627,59.023,12s6.1-12,13.621-12S86.264,5.372,86.264,12ZM72.644,104c-7.523,0-13.621,5.372-13.621,12s6.1,12,13.621,12,13.621-5.373,13.621-12S80.166,104,72.644,104Zm-45.4-40c0-6.628-6.1-12-13.621-12S0,57.372,0,64,6.1,76,13.621,76,27.241,70.628,27.241,64Zm3.667,24.77c-7.523,0-13.621,5.372-13.621,12s6.1,12,13.621,12,13.621-5.372,13.621-12S38.431,88.77,30.908,88.77Zm83.471,0c-7.523,0-13.621,5.372-13.621,12s6.1,12,13.621,12S128,107.4,128,100.77,121.9,88.77,114.379,88.77ZM30.908,15.23c-7.523,0-13.621,5.373-13.621,12s6.1,12,13.621,12,13.621-5.373,13.621-12S38.431,15.23,30.908,15.23Z" transform="translate(93 109)" fill="#c968c9"/>
    <text id="Project_Vulpes" data-name="Project Vulpes" transform="translate(179 142)" font-size="50" font-family="Skia" font-weight="700"><tspan x="0" y="39">Project Vulpes</tspan></text>
  </g>
</svg>
