<?xml version="1.0" encoding="iso-8859-1"?>
<!-- Generator: Adobe Illustrator 23.0.6, SVG Export Plug-In . SVG Version: 6.00 Build 0)  -->
<svg version="1.1" id="Capa_1" xmlns="http://www.w3.org/2000/svg" xmlns:xlink="http://www.w3.org/1999/xlink" x="0px" y="0px" width="100%" height="100%"
	 viewBox="0 0 512 512" style="enable-background:new 0 0 512 512;" xml:space="preserve">
<g>
	<path style="fill:#B1E4F9;" d="M512,256c0,0.67,0,1.33-0.01,2c-0.28,36.74-8.3,71.63-22.51,103.13c-6.67,14.8-14.71,28.86-23.96,42
		c-13.45,19.12-29.46,36.32-47.52,51.09c-21.7,17.76-46.37,32.021-73.15,41.93C317.17,506.4,287.24,512,256,512
		s-61.17-5.6-88.85-15.85c-26.78-9.91-51.45-24.17-73.15-41.93c-15.14-12.39-28.84-26.47-40.8-41.979
		c-2.3-2.98-4.54-6.021-6.71-9.11c-6.91-9.82-13.15-20.15-18.65-30.92c-1.86-3.64-3.63-7.34-5.32-11.08
		c-9.41-20.86-16.11-43.21-19.63-66.59C0.98,281.97,0,269.1,0,256c0-55.02,17.36-105.98,46.9-147.72
		c19.79-27.96,45.05-51.78,74.22-69.9C160.28,14.05,206.5,0,256,0c34.16,0,66.77,6.69,96.56,18.84
		c28.74,11.71,54.87,28.5,77.28,49.24C480.37,114.84,512,181.73,512,256z"/>
	<path style="fill:#57988B;" d="M404.44,290.01c-28.05,62.21-80.24,111.2-144.63,135.02c-14.62-2.85-27.64-10.2-37.57-20.54
		c-12.94,13.47-31.12,21.87-51.28,21.87c-20.16,0-38.34-8.4-51.28-21.87c-9.93,10.34-22.95,17.69-37.57,20.54
		c-9.94-3.68-19.59-7.96-28.91-12.79c-9.63-12.48-18.13-25.87-25.36-40.03c-1.86-3.64-3.63-7.34-5.32-11.08
		c-9.41-20.86-16.11-43.21-19.63-66.59c5.23,3.2,10.01,7.06,14.23,11.45c12.94-13.47,31.12-21.87,51.28-21.87
		c20.15,0,38.34,8.4,51.28,21.87c12.94-13.47,31.12-21.87,51.28-21.87c20.16,0,38.34,8.4,51.28,21.87
		c12.94-13.47,31.13-21.87,51.28-21.87c20.16,0,38.34,8.4,51.28,21.87c12.94-13.47,31.13-21.87,51.28-21.87
		C386.16,284.12,395.75,286.22,404.44,290.01z"/>
	<path style="fill:#434D51;" d="M333.58,454.22H94c-27.34-22.36-49.97-50.27-66.16-82.01l71.34-164.94
		c0.02-0.06,0.04-0.13,0.07-0.19L217.9,206l26.07,41.03l0.02,0.03L333.58,454.22z"/>
	<path style="fill:#2F373B;" d="M130.46,204.2l11.85,2.88c-0.01,0.06-0.01,0.13-0.02,0.19l-34.63,246.95H94
		c-27.34-22.36-49.97-50.27-66.16-82.01l71.34-164.94c0.02-0.06,0.04-0.13,0.07-0.19l11.55-5.58L130.46,204.2z"/>
	<path style="fill:#434D51;" d="M511.99,258c-0.28,36.74-8.3,71.63-22.51,103.13c-16.38,36.33-41,68.16-71.48,93.09H162.98
		l128.05-296.08v-0.01l4.72-10.92c0.01-0.02,0.02-0.05,0.03-0.07L328.6,96.2c1.29-2.98,91.2-6.145,91.2-6.145l48.16,66.155
		c0.02,0.02,0.03,0.05,0.04,0.08L511.99,258z"/>
	<path style="fill:#2F373B;" d="M340.089,148.185l-0.339,26.175l-50.69,279.86H162.98l138.716-320.759
		C301.696,133.461,340.099,148.165,340.089,148.185z"/>
	<path style="fill:#6EC17D;" d="M489.48,361.13c-28.05,62.21-80.24,111.2-144.63,135.02c-14.62-2.85-27.64-10.2-37.57-20.54
		c-12.94,13.47-31.12,21.87-51.28,21.87s-38.34-8.4-51.28-21.87c-9.93,10.34-22.95,17.69-37.57,20.54
		c-64.39-23.82-116.58-72.81-144.63-135.02c8.69-3.79,18.28-5.89,28.36-5.89c20.15,0,38.34,8.4,51.28,21.87
		c12.94-13.47,31.12-21.87,51.28-21.87c20.15,0,38.34,8.4,51.28,21.87c12.94-13.47,31.12-21.87,51.28-21.87s38.34,8.4,51.28,21.87
		c12.94-13.47,31.13-21.87,51.28-21.87c20.16,0,38.34,8.4,51.28,21.87c12.94-13.47,31.13-21.87,51.28-21.87
		C471.2,355.24,480.79,357.34,489.48,361.13z"/>
	<path style="fill:#F6F1F1;" d="M243.97,247.03c-3.07-7.11-9.74-10.78-16.43-10.78c-5.91,0-11.84,2.86-15.33,8.75
		c-5.95,10.02-19.76,11.75-28,3.51l-24.22-24.22c-4.8-4.8-11.91-6.47-18.34-4.3l-1.2,0.4l-22.1,7.45
		c-12.6,4.24-24.28-8.36-19.17-20.57c0.02-0.06,0.04-0.13,0.07-0.19l10.78-24.92l17.65-40.8c6.68-15.46,20.98-23.19,35.29-23.19
		c14.3,0,28.61,7.73,35.3,23.19L243.97,247.03z"/>
	<path style="fill:#F6F1F1;" d="M467.96,156.21c-2.2-5.02-6.77-7.43-11.34-7.43c-5.28,0-10.54,3.23-12.1,9.38
		c-2.66,10.51-16.56,12.82-22.48,3.74l-21.75-33.35c-4.96-7.62-16.15-7.51-20.97,0.19l-25.24,40.36c-3.2,5.11-9.2,6.87-14.33,5.26
		c-2.61-0.82-4.99-2.52-6.66-5.09l-15.48-23.89c-5.39-8.31-17.84-7.3-21.83,1.76l52.03-120.3c6.09-14.06,19.09-21.09,32.1-21.09
		s26.02,7.03,32.1,21.09L467.96,156.21z"/>
	<path style="fill:#D0E2E7;" d="M379.91,5.75c-5.45,0-10.89,7.03-13.44,21.09l-21.79,120.3c-0.01,0.02-0.01,0.05-0.02,0.07
		l-4.91,27.15c-2.61-0.82-4.99-2.52-6.66-5.09l-15.48-23.89c-5.39-8.31-17.84-7.3-21.83,1.76l52.03-120.3
		C353.9,12.78,366.9,5.75,379.91,5.75z"/>
	<path style="fill:#D0E2E7;" d="M162.97,118.17c-4.64,0-9.28,7.73-11.44,23.19l-5.72,40.8l-3.5,24.92
		c-0.01,0.06-0.01,0.13-0.02,0.19l-1.84,13.12l-22.1,7.45c-12.6,4.24-24.28-8.36-19.17-20.57c0.02-0.06,0.04-0.13,0.07-0.19
		l10.78-24.92l17.65-40.8C134.36,125.9,148.66,118.17,162.97,118.17z"/>
	<path style="fill:#5EA5EC;" d="M465.52,403.13c-10.19,14.48-21.84,27.86-34.74,39.91c-4.13,3.87-8.4,7.6-12.78,11.18
		c-21.7,17.76-46.37,32.021-73.15,41.93C317.17,506.4,287.24,512,256,512s-61.17-5.6-88.85-15.85
		c-26.78-9.91-51.45-24.17-73.15-41.93c-4.38-3.59-8.64-7.31-12.77-11.18c-10.15-9.48-19.53-19.78-28.03-30.8
		c-2.3-2.98-4.54-6.021-6.71-9.11H465.52z"/>
	<path style="fill:#80B4FB;" d="M430.78,443.04c-4.13,3.87-8.4,7.6-12.78,11.18c-21.7,17.76-46.37,32.021-73.15,41.93
		C317.17,506.4,287.24,512,256,512s-61.17-5.6-88.85-15.85c-26.78-9.91-51.45-24.17-73.15-41.93c-4.38-3.59-8.64-7.31-12.77-11.18
		H430.78z"/>
</g>
<g>
</g>
<g>
</g>
<g>
</g>
<g>
</g>
<g>
</g>
<g>
</g>
<g>
</g>
<g>
</g>
<g>
</g>
<g>
</g>
<g>
</g>
<g>
</g>
<g>
</g>
<g>
</g>
<g>
</g>
</svg>
