<svg xmlns="http://www.w3.org/2000/svg" width="850" height="512" viewBox="0 0 756 512">
  <g id="logo" transform="translate(120.208)">
    <g id="g228">
      <path id="path202" d="M512,256c0,.67,0,1.33-.01,2A256.013,256.013,0,0,1,53.2,412.241q-3.45-4.47-6.71-9.11a256.273,256.273,0,0,1-18.65-30.92q-2.79-5.46-5.32-11.08a253.687,253.687,0,0,1-19.63-66.59A256.013,256.013,0,1,1,512,256Z" fill="#b1e4f9"/>
      <path id="path204" d="M404.44,290.01A256.775,256.775,0,0,1,259.81,425.03a70.924,70.924,0,0,1-37.57-20.54,71.055,71.055,0,0,1-102.56,0,70.924,70.924,0,0,1-37.57,20.54A255.992,255.992,0,0,1,53.2,412.24a256.32,256.32,0,0,1-25.36-40.03q-2.79-5.46-5.32-11.08A253.687,253.687,0,0,1,2.89,294.54a71.56,71.56,0,0,1,14.23,11.45,71.055,71.055,0,0,1,102.56,0,71.055,71.055,0,0,1,102.56,0,71.055,71.055,0,0,1,102.56,0,71.109,71.109,0,0,1,79.64-15.98Z" fill="#57988b"/>
      <path id="path206" d="M333.58,454.22H94a256.781,256.781,0,0,1-66.16-82.01L99.18,207.27a1.458,1.458,0,0,1,.07-.19L217.9,206l26.07,41.03.02.03Z" fill="#434d51"/>
      <path id="path208" d="M130.46,204.2l11.85,2.88c-.01.06-.01.13-.02.19L107.66,454.22H94a256.781,256.781,0,0,1-66.16-82.01L99.18,207.27a1.458,1.458,0,0,1,.07-.19l11.55-5.58Z" fill="#2f373b"/>
      <path id="path210" d="M511.99,258A255.434,255.434,0,0,1,418,454.22H162.98L291.03,158.14v-.01l4.72-10.92c.01-.02.02-.05.03-.07L328.6,96.2c1.29-2.98,91.2-6.145,91.2-6.145l48.16,66.155a.2.2,0,0,1,.04.08Z" fill="#434d51"/>
      <path id="path212" d="M340.089,148.185l-.339,26.175L289.06,454.22H162.98L301.7,133.461S340.1,148.165,340.089,148.185Z" fill="#2f373b"/>
      <path id="path214" d="M489.48,361.13A256.775,256.775,0,0,1,344.85,496.15a70.924,70.924,0,0,1-37.57-20.54,71.055,71.055,0,0,1-102.56,0,70.924,70.924,0,0,1-37.57,20.54A256.775,256.775,0,0,1,22.52,361.13a71.109,71.109,0,0,1,79.64,15.98,71.055,71.055,0,0,1,102.56,0,71.055,71.055,0,0,1,102.56,0,71.055,71.055,0,0,1,102.56,0,71.109,71.109,0,0,1,79.64-15.98Z" fill="#6ec17d"/>
      <path id="path216" d="M243.97,247.03A17.861,17.861,0,0,0,212.21,245a17.874,17.874,0,0,1-28,3.51l-24.22-24.22a17.866,17.866,0,0,0-18.34-4.3l-1.2.4-22.1,7.45a15.435,15.435,0,0,1-19.17-20.57,1.458,1.458,0,0,1,.07-.19l10.78-24.92,17.65-40.8a38.454,38.454,0,0,1,70.59,0Z" fill="#f6f1f1"/>
      <path id="path218" d="M467.96,156.21a12.437,12.437,0,0,0-23.44,1.95,12.441,12.441,0,0,1-22.48,3.74l-21.75-33.35a12.441,12.441,0,0,0-20.97.19L354.08,169.1a12.44,12.44,0,0,1-14.33,5.26,12.3,12.3,0,0,1-6.66-5.09l-15.48-23.89a12.442,12.442,0,0,0-21.83,1.76l52.03-120.3a34.974,34.974,0,0,1,64.2,0Z" fill="#f6f1f1"/>
      <path id="path220" d="M379.91,5.75c-5.45,0-10.89,7.03-13.44,21.09l-21.79,120.3c-.01.02-.01.05-.02.07l-4.91,27.15a12.3,12.3,0,0,1-6.66-5.09l-15.48-23.89a12.442,12.442,0,0,0-21.83,1.76l52.03-120.3A34.5,34.5,0,0,1,379.91,5.75Z" fill="#d0e2e7"/>
      <path id="path222" d="M162.97,118.17c-4.64,0-9.28,7.73-11.44,23.19l-5.72,40.8-3.5,24.92c-.01.06-.01.13-.02.19l-1.84,13.12-22.1,7.45a15.435,15.435,0,0,1-19.17-20.57,1.458,1.458,0,0,1,.07-.19l10.78-24.92,17.65-40.8A37.906,37.906,0,0,1,162.97,118.17Z" fill="#d0e2e7"/>
      <path id="path224" d="M465.52,403.13a257.1,257.1,0,0,1-34.74,39.91q-6.2,5.8-12.78,11.18a255.711,255.711,0,0,1-324,0q-6.57-5.385-12.77-11.18a256.583,256.583,0,0,1-28.03-30.8q-3.45-4.47-6.71-9.11H465.52Z" fill="#5ea5ec"/>
      <path id="path226" d="M430.78,443.04q-6.2,5.8-12.78,11.18a255.711,255.711,0,0,1-324,0q-6.57-5.385-12.77-11.18Z" fill="#80b4fb"/>
    </g>
    <text id="text267" transform="translate(-117.208 260.553)" fill="#ff9090" stroke="rgba(255,144,144,0.97)" stroke-width="3" font-size="83" font-family="Zapfino" letter-spacing="0.052em"><tspan x="0" y="0">Project Vulpes</tspan></text>
  </g>
</svg>
