<?xml version="1.0" encoding="iso-8859-1"?>
<!-- Generator: Adobe Illustrator 23.0.6, SVG Export Plug-In . SVG Version: 6.00 Build 0)  -->
<svg version="1.1" id="Capa_1" xmlns="http://www.w3.org/2000/svg" xmlns:xlink="http://www.w3.org/1999/xlink" x="0px" y="0px"
	 viewBox="0 0 512 512" style="enable-background:new 0 0 512 512;" xml:space="preserve">
<g>
	<path style="fill:#434D51;" d="M512,256c0,24.35-3.4,47.91-9.75,70.23c-9.14,32.09-24.38,61.62-44.39,87.23
		c-12.33,15.78-26.46,30.07-42.09,42.57c-12.74,10.19-26.48,19.19-41.04,26.82C339.24,501.47,298.85,512,256,512
		s-83.25-10.53-118.73-29.15c-36.55-19.16-67.9-46.91-91.37-80.55C16.97,360.83,0,310.4,0,256C0,114.62,114.62,0,256,0
		S512,114.62,512,256z"/>
	<g>
		<path style="fill:#F46C7C;" d="M192.971,14.646L24.758,305.99c-11.275,19.528,2.818,43.938,25.367,43.938h336.419
			c22.549,0,36.642-24.41,25.368-43.938L243.706,14.646C232.432-4.882,204.246-4.882,192.971,14.646z M218.339,65.489l136.86,237.06
			H81.47L218.339,65.489z"/>
		<path style="fill:#C9394A;" d="M359.04,78.18c-11.28-19.53-39.46-19.53-50.74-0.01L140.09,369.52
			c-11.28,19.53,2.82,43.94,25.37,43.94h292.4c20.01-25.61,35.25-55.14,44.39-87.23L359.04,78.18z M196.8,366.08l136.87-237.06
			l136.86,237.06H196.8z"/>
		<path style="fill:#E84D59;" d="M411.91,438.91l-168.2-291.34c-11.28-19.53-39.46-19.53-50.74,0L45.9,402.3
			c23.47,33.64,54.82,61.39,91.37,80.55h237.46c14.56-7.63,28.3-16.63,41.04-26.82C416.27,450.38,415.11,444.45,411.91,438.91z
			 M81.47,435.47l136.87-237.06L355.2,435.47H81.47z"/>
		<path style="fill:#F46C7C;" d="M162.115,302.549H81.47l9.823-17.013c-15.159,8.297-25.441,24.394-25.441,42.894
			c0,7.716,1.794,15.01,4.979,21.499h74.344C148.358,343.44,162.115,302.549,162.115,302.549z"/>
		<polygon style="fill:#F46C7C;" points="286.133,349.928 385.825,349.928 355.199,302.549 268.54,302.549 		"/>
	</g>
</g>
<g>
</g>
<g>
</g>
<g>
</g>
<g>
</g>
<g>
</g>
<g>
</g>
<g>
</g>
<g>
</g>
<g>
</g>
<g>
</g>
<g>
</g>
<g>
</g>
<g>
</g>
<g>
</g>
<g>
</g>
</svg>
